<?xml version="1.0" standalone="no"?><!DOCTYPE svg PUBLIC "-//W3C//DTD SVG 1.1//EN" "http://www.w3.org/Graphics/SVG/1.1/DTD/svg11.dtd"><svg t="1627551409935" class="icon" viewBox="0 0 1024 1024" version="1.1" xmlns="http://www.w3.org/2000/svg" p-id="1488" xmlns:xlink="http://www.w3.org/1999/xlink" width="200" height="200"><defs><style type="text/css">@font-face { font-family: feedback-iconfont; src: url("//at.alicdn.com/t/font_1031158_1uhr8ri0pk5.eot?#iefix") format("embedded-opentype"), url("//at.alicdn.com/t/font_1031158_1uhr8ri0pk5.woff2") format("woff2"), url("//at.alicdn.com/t/font_1031158_1uhr8ri0pk5.woff") format("woff"), url("//at.alicdn.com/t/font_1031158_1uhr8ri0pk5.ttf") format("truetype"), url("//at.alicdn.com/t/font_1031158_1uhr8ri0pk5.svg#iconfont") format("svg"); }
</style></defs><path d="M709.70026667 72.54471147c-13.65333333 0-27.30666667 13.65333333-27.30666667 27.30666666s9.10222187 27.30666667 27.30666667 27.30666667h168.39111146c13.65333333 0 27.30666667 9.10222187 27.30666667 27.30666667v168.3911104c0 13.65333333 13.65333333 27.30666667 27.30666667 27.30666666s27.30666667-9.10222187 27.30666666-27.30666666v-172.94222187c0-40.96-31.85777813-77.36888853-77.3688896-77.36888853h-172.94222186z m-559.78666667 0c-45.51111147 0-77.36888853 36.40888853-77.36888853 77.36888853v168.39111147c0 13.65333333 13.65333333 27.30666667 27.30666666 27.30666666s27.30666667-13.65333333 27.30666667-27.30666666v-168.39111147c0-13.65333333 13.65333333-27.30666667 27.30666667-27.30666667h168.3911104c13.65333333 0 27.30666667-13.65333333 27.30666666-27.30666666-9.10222187-9.10222187-18.2044448-22.7555552-36.40888853-22.7555552h-163.84z m113.77777813 145.6355552c-36.40888853 0-68.26666667 31.85777813-68.26666666 68.26666666v473.3155552c0 36.40888853 31.85777813 68.26666667 68.26666666 68.26666667h491.52c36.40888853 0 68.26666667-31.85777813 68.26666667-68.26666667v-473.3155552c0-36.40888853-31.85777813-68.26666667-68.26666667-68.26666666h-491.52z m50.06222187 177.49333333c0-27.30666667 22.7555552-45.51111147 45.51111147-45.51111147 27.30666667 0 45.51111147 22.7555552 45.5111104 45.51111147 0 27.30666667-22.7555552 45.51111147-45.5111104 45.51111147s-45.51111147-22.7555552-45.51111147-45.51111147z m213.90222187 232.10666667l172.94222293-213.90222187c9.10222187-9.10222187 22.7555552-13.65333333 36.40888853-4.55111147l4.55111147 4.55111147 27.30666667 31.85777707v314.02666666c0 4.55111147-4.55111147 9.10222187-9.10222294 9.10222294h-496.0711104c-4.55111147 0-9.10222187-4.55111147-9.10222293-9.10222294v-59.16444373l136.53333333-145.63555627c9.10222187-9.10222187 27.30666667-9.10222187 36.4088896 0l86.4711104 77.3688896h4.55111147c4.55111147 0 9.10222187 0 9.10222187-4.55111146z m373.19111146 81.92v168.39111146c0 13.65333333-13.65333333 27.30666667-27.30666666 27.30666667h-163.84c-13.65333333 0-27.30666667 13.65333333-27.30666667 27.30666667s13.65333333 27.30666667 27.30666667 27.30666666h168.39111146c40.96 0 77.36888853-36.40888853 77.36888854-77.3688896v-172.94222186c0-13.65333333-13.65333333-27.30666667-27.30666667-27.30666667-18.2044448 0-27.30666667 13.65333333-27.30666667 27.30666667z m-828.30222186 0v168.39111146c0 40.96 31.85777813 77.36888853 77.36888853 77.36888854h168.39111147c13.65333333 0 27.30666667-13.65333333 27.30666666-27.30666667s-9.10222187-27.30666667-27.30666666-27.30666667h-168.39111147c-13.65333333 0-27.30666667-9.10222187-27.30666667-27.30666666v-163.84c0-13.65333333-13.65333333-27.30666667-27.30666666-27.30666667-9.10222187 0-22.7555552 13.65333333-22.7555552 27.30666667z" fill="#eeeeee" p-id="1489"></path></svg>